<?xml version="1.0" standalone="no"?>
<!DOCTYPE svg PUBLIC "-//W3C//DTD SVG 20010904//EN"
 "http://www.w3.org/TR/2001/REC-SVG-20010904/DTD/svg10.dtd">
<svg version="1.0" xmlns="http://www.w3.org/2000/svg"
 width="328.000000pt" height="500.000000pt" viewBox="0 0 328.000000 500.000000"
 preserveAspectRatio="xMidYMid meet">

<g transform="translate(0.000000,500.000000) scale(0.100000,-0.100000)"
fill="#000000" stroke="none">
<path d="M1489 4681 c-37 -12 -69 -30 -113 -65 -22 -16 -55 -39 -75 -49 -49
-26 -86 -62 -127 -124 -42 -63 -62 -67 -129 -24 -163 103 -333 35 -439 -176
-20 -41 -32 -53 -49 -53 -39 0 -125 -50 -165 -95 -49 -56 -99 -157 -107 -215
l-6 -45 18 50 c49 134 165 245 257 245 20 0 29 11 54 64 90 193 264 262 416
165 27 -17 60 -29 79 -29 29 0 37 7 77 68 34 51 58 75 100 98 30 18 72 46 92
64 43 37 124 70 171 70 96 0 204 -77 256 -182 17 -34 31 -67 31 -75 0 -7 8
-13 18 -13 37 0 111 -32 149 -65 37 -32 39 -33 68 -17 46 25 159 22 212 -6 61
-32 111 -88 147 -162 28 -59 31 -74 31 -160 0 -52 -3 -108 -7 -125 -7 -28 -6
-27 9 5 28 62 38 153 26 226 -37 214 -211 346 -383 290 l-50 -17 -39 31 c-21
17 -65 39 -96 49 -56 18 -59 20 -78 72 -27 73 -123 169 -191 192 -52 18 -113
21 -157 8z"/>
<path d="M1129 4277 c-140 -40 -230 -186 -200 -322 7 -30 17 -55 22 -55 6 0 7
9 3 23 -14 41 -7 112 16 165 45 105 162 172 277 158 89 -10 175 -64 210 -129
8 -16 17 -27 19 -24 9 9 -34 82 -68 114 -69 66 -187 96 -279 70z"/>
<path d="M1440 3979 c-25 -11 -66 -40 -91 -65 -46 -45 -46 -45 -80 -31 -129
54 -282 8 -352 -105 -28 -45 -33 -48 -72 -48 -102 0 -213 -75 -255 -171 -18
-42 -21 -66 -18 -125 2 -41 8 -78 14 -84 8 -8 10 8 6 59 -4 62 -1 77 22 125
44 90 141 156 230 156 l31 0 -3 -53 c-2 -30 2 -68 10 -86 13 -33 14 -31 13 45
0 95 21 141 91 203 73 64 168 85 259 57 31 -9 39 -17 37 -32 -13 -92 -13 -142
1 -174 l16 -35 -6 51 c-22 205 191 357 385 274 48 -21 132 -97 132 -120 0 -5
4 -10 10 -10 14 0 0 32 -36 83 -47 66 -134 107 -228 107 -50 0 -85 -7 -116
-21z"/>
<path d="M275 3645 c27 -395 30 -1449 5 -1950 -19 -389 -41 -701 -55 -781 -8
-44 -15 -117 -15 -161 0 -72 4 -88 33 -144 50 -98 100 -128 292 -173 368 -88
709 -126 1140 -126 194 0 518 22 601 40 63 14 133 52 171 92 l31 33 -14 179
c-7 99 -13 180 -11 181 177 98 301 270 430 595 86 217 150 465 178 693 17 144
6 466 -20 584 -43 197 -93 311 -174 399 -90 99 -210 162 -367 193 l-85 17 1
45 c0 24 2 105 4 180 5 175 -3 190 -64 122 l-42 -46 -5 -326 c-7 -549 -2
-1570 10 -1881 12 -306 36 -734 46 -807 6 -42 5 -43 -42 -73 -26 -17 -65 -35
-86 -41 -78 -21 -359 -39 -607 -39 -434 0 -702 28 -1065 111 -159 36 -196 52
-240 100 -58 65 -64 109 -37 314 13 94 38 462 52 765 18 386 23 1028 11 1415
-11 344 -13 373 -33 415 -12 24 -28 67 -35 95 l-13 50 5 -70z m2284 -402 c131
-36 265 -130 330 -232 38 -58 84 -192 112 -321 26 -124 36 -386 20 -541 -34
-326 -168 -747 -316 -998 -56 -94 -146 -197 -210 -241 l-43 -30 -6 73 c-11
132 -26 548 -21 558 4 5 14 9 23 9 37 0 123 61 153 108 163 254 219 588 146
872 -59 227 -131 310 -294 336 l-43 7 0 207 c0 113 3 210 7 213 8 9 72 0 142
-20z m-41 -465 c83 -25 149 -129 191 -298 41 -167 37 -344 -10 -525 -22 -87
-104 -269 -145 -322 -25 -33 -90 -73 -117 -73 -19 0 -27 228 -27 793 l0 448
38 -6 c20 -4 52 -11 70 -17z"/>
<path d="M1378 3519 c-21 -6 -58 -29 -83 -51 -53 -47 -81 -122 -70 -188 9 -56
24 -59 17 -5 -15 137 120 248 260 215 40 -10 63 -24 100 -61 54 -54 62 -51 19
8 -50 69 -159 105 -243 82z"/>
<path d="M1987 3477 c-3 -24 -9 -52 -12 -62 -6 -20 -6 -20 6 -1 7 11 18 39 25
63 11 35 11 43 0 43 -8 0 -16 -17 -19 -43z"/>
<path d="M391 3444 c0 -11 3 -14 6 -6 3 7 2 16 -1 19 -3 4 -6 -2 -5 -13z"/>
<path d="M860 3361 c-44 -14 -84 -39 -112 -68 -60 -63 -84 -170 -53 -238 13
-29 13 -29 8 20 -7 69 11 129 55 177 101 112 280 107 370 -11 39 -52 42 -41 4
20 -37 58 -113 100 -190 105 -31 2 -68 0 -82 -5z"/>
<path d="M1876 3252 c-15 -18 -15 -22 9 -74 48 -104 96 -378 127 -718 9 -96
13 -305 13 -620 -1 -522 -8 -634 -65 -940 -30 -167 -56 -234 -94 -246 -27 -9
-41 13 -76 121 -82 257 -123 680 -124 1270 0 446 22 746 75 989 10 49 17 91
15 93 -10 11 -57 -24 -62 -46 -3 -14 -10 -42 -15 -61 -15 -62 -47 -339 -60
-516 -15 -223 -6 -919 15 -1134 32 -324 55 -460 107 -623 49 -153 100 -190
173 -127 46 41 69 95 94 225 50 261 69 463 78 837 15 606 -52 1297 -146 1516
-29 66 -42 77 -64 54z"/>
<path d="M487 2978 c-49 -277 -75 -579 -84 -973 -11 -554 33 -1024 117 -1247
34 -90 89 -113 150 -62 45 39 65 85 99 230 53 233 80 434 102 759 15 212 15
845 1 994 -8 92 -12 106 -33 122 -13 10 -26 19 -29 19 -3 0 -2 -39 4 -87 17
-159 12 -943 -7 -1169 -37 -428 -104 -759 -167 -819 -28 -27 -32 -28 -46 -13
-36 36 -91 288 -114 523 -6 61 -14 277 -17 480 -8 489 11 805 69 1168 21 135
21 137 2 152 -10 8 -22 15 -25 15 -3 0 -13 -42 -22 -92z"/>
<path d="M1405 2917 c-17 -14 -18 -19 -1 -163 27 -241 36 -420 36 -752 0 -351
-11 -583 -40 -813 -25 -197 -75 -433 -101 -475 -20 -33 -51 -50 -69 -39 -16
10 -69 192 -90 310 -70 391 -86 1176 -35 1660 8 77 15 144 15 148 0 5 -12 7
-27 5 -28 -3 -28 -4 -40 -108 -51 -461 -40 -1269 22 -1659 20 -123 59 -279 87
-342 20 -48 56 -79 92 -79 25 0 88 62 108 107 24 54 72 290 92 453 61 490 59
1205 -5 1678 -6 45 -14 82 -18 82 -4 0 -15 -6 -26 -13z"/>
</g>
</svg>
